<svg width="600" height="600" xmlns="http://www.w3.org/2000/svg">
 <g>
  <title>Layer 1</title>
  <g transform="rotate(-180 299.5 301.5)" stroke="null">
   <path stroke="null" d="m593.50006,7.50003l-91.16064,0l-309.39117,309.39117l-42.04716,-42.04716l-13.87474,-41.6139c-2.26947,-6.83937 -8.84063,-10.98632 -15.98947,-10.10947c-7.14884,0.87684 -12.52337,6.49895 -13.08042,13.68905l-5.90063,76.72885l61.70906,61.70906l-106.76843,106.77874l-28.03832,0c-12.936,0 -23.45811,10.52211 -23.45811,23.45811l0,66.55748c0,12.936 10.52211,23.45811 23.45811,23.45811l66.55748,0c12.936,0 23.45811,-10.52211 23.45811,-23.45811l0,-35.29032l103.1579,-103.1579l62.11137,62.11137l70.82821,-11.81158c7.06632,-1.16568 12.19326,-6.98379 12.48211,-14.13263c0.28884,-7.14884 -4.35326,-13.35895 -11.30611,-15.10232l-34.01116,-8.50021l-41.70674,-41.70674l312.97075,-309.38086l0,-87.57074zm-495.15792,564.54192c0,1.55768 -1.26884,2.82653 -2.82653,2.82653l-66.55748,0c-1.55768,0 -2.82653,-1.26884 -2.82653,-2.82653l0,-66.55748c0,-1.55768 1.26884,-2.82653 2.82653,-2.82653l7.40674,0l59.15074,0c1.55768,0 2.82653,1.26884 2.82653,2.82653l0,51.89874l0,14.65874zm20.63158,-64.46337l0,-2.09411c0,-12.936 -10.52211,-23.45811 -23.45811,-23.45811l-9.34611,0l92.20253,-92.20253l14.61747,14.61747l14.55558,14.55558l-88.57137,88.58169zm205.71748,-39.53011l-33.37158,5.57053l-54.60148,-54.60148l0,0l-29.22463,-29.22463l-84.12527,-84.12527l3.01221,-39.15874l6.49895,19.49684l45.49263,45.49263l0,0l43.58421,43.58421l89.73706,89.73706l12.9979,3.22884zm-58.74842,-78.18337l-29.11116,-29.11116l-29.28653,-29.28653l303.33581,-303.33581l43.7699,0l-303.33581,303.34612c-4.03347,4.03347 -4.03347,10.55305 0,14.58653c2.01158,2.01158 4.65242,3.02253 7.29326,3.02253s5.28168,-1.01095 7.29326,-3.02253l306.96696,-306.97728l0,47.37011l-306.9257,303.40802z"/>
   <g stroke="null"/>
   <g stroke="null"/>
   <g stroke="null"/>
   <g stroke="null"/>
   <g stroke="null"/>
   <g stroke="null"/>
   <g stroke="null"/>
   <g stroke="null"/>
   <g stroke="null"/>
   <g stroke="null"/>
   <g stroke="null"/>
   <g stroke="null"/>
   <g stroke="null"/>
   <g stroke="null"/>
   <g stroke="null"/>
  </g>
 </g>

</svg>